<?xml version="1.0" encoding="utf-8" standalone="no"?>
<!DOCTYPE svg PUBLIC "-//W3C//DTD SVG 1.1//EN"
  "http://www.w3.org/Graphics/SVG/1.1/DTD/svg11.dtd">
<!-- Created with matplotlib (http://matplotlib.org/) -->
<svg height="288pt" version="1.1" viewBox="0 0 504 288" width="504pt" xmlns="http://www.w3.org/2000/svg" xmlns:xlink="http://www.w3.org/1999/xlink">
 <defs>
  <style type="text/css">
*{stroke-linecap:butt;stroke-linejoin:round;}
  </style>
 </defs>
 <g id="figure_1">
  <g id="patch_1">
   <path d="M 0 288
L 504 288
L 504 0
L 0 0
z
" style="fill:#ffffff;"/>
  </g>
  <g id="axes_1">
   <g id="patch_2">
    <path d="M 61.2 246.04
L 442.8 246.04
L 442.8 26.88
L 61.2 26.88
z
" style="fill:#ffffff;"/>
   </g>
   <g id="matplotlib.axis_1">
    <g id="xtick_1">
     <g id="line2d_1">
      <defs>
       <path d="M 0 0
L 0 3.5
" id="m500d5165e6" style="stroke:#000000;stroke-width:0.8;"/>
      </defs>
      <g>
       <use style="stroke:#000000;stroke-width:0.8;" x="78.545455" xlink:href="#m500d5165e6" y="246.04"/>
      </g>
     </g>
     <g id="text_1">
      <!-- 0 -->
      <defs>
       <path d="M 31.78125 66.40625
Q 24.171875 66.40625 20.328125 58.90625
Q 16.5 51.421875 16.5 36.375
Q 16.5 21.390625 20.328125 13.890625
Q 24.171875 6.390625 31.78125 6.390625
Q 39.453125 6.390625 43.28125 13.890625
Q 47.125 21.390625 47.125 36.375
Q 47.125 51.421875 43.28125 58.90625
Q 39.453125 66.40625 31.78125 66.40625
M 31.78125 74.21875
Q 44.046875 74.21875 50.515625 64.515625
Q 56.984375 54.828125 56.984375 36.375
Q 56.984375 17.96875 50.515625 8.265625
Q 44.046875 -1.421875 31.78125 -1.421875
Q 19.53125 -1.421875 13.0625 8.265625
Q 6.59375 17.96875 6.59375 36.375
Q 6.59375 54.828125 13.0625 64.515625
Q 19.53125 74.21875 31.78125 74.21875
" id="DejaVuSans-30"/>
      </defs>
      <g transform="translate(75.364205 260.638438)scale(0.1 -0.1)">
       <use xlink:href="#DejaVuSans-30"/>
      </g>
     </g>
    </g>
    <g id="xtick_2">
     <g id="line2d_2">
      <g>
       <use style="stroke:#000000;stroke-width:0.8;" x="122.347107" xlink:href="#m500d5165e6" y="246.04"/>
      </g>
     </g>
     <g id="text_2">
      <!-- 25 -->
      <defs>
       <path d="M 19.1875 8.296875
L 53.609375 8.296875
L 53.609375 0
L 7.328125 0
L 7.328125 8.296875
Q 12.9375 14.109375 22.625 23.890625
Q 32.328125 33.6875 34.8125 36.53125
Q 39.546875 41.84375 41.421875 45.53125
Q 43.3125 49.21875 43.3125 52.78125
Q 43.3125 58.59375 39.234375 62.25
Q 35.15625 65.921875 28.609375 65.921875
Q 23.96875 65.921875 18.8125 64.3125
Q 13.671875 62.703125 7.8125 59.421875
L 7.8125 69.390625
Q 13.765625 71.78125 18.9375 73
Q 24.125 74.21875 28.421875 74.21875
Q 39.75 74.21875 46.484375 68.546875
Q 53.21875 62.890625 53.21875 53.421875
Q 53.21875 48.921875 51.53125 44.890625
Q 49.859375 40.875 45.40625 35.40625
Q 44.1875 33.984375 37.640625 27.21875
Q 31.109375 20.453125 19.1875 8.296875
" id="DejaVuSans-32"/>
       <path d="M 10.796875 72.90625
L 49.515625 72.90625
L 49.515625 64.59375
L 19.828125 64.59375
L 19.828125 46.734375
Q 21.96875 47.46875 24.109375 47.828125
Q 26.265625 48.1875 28.421875 48.1875
Q 40.625 48.1875 47.75 41.5
Q 54.890625 34.8125 54.890625 23.390625
Q 54.890625 11.625 47.5625 5.09375
Q 40.234375 -1.421875 26.90625 -1.421875
Q 22.3125 -1.421875 17.546875 -0.640625
Q 12.796875 0.140625 7.71875 1.703125
L 7.71875 11.625
Q 12.109375 9.234375 16.796875 8.0625
Q 21.484375 6.890625 26.703125 6.890625
Q 35.15625 6.890625 40.078125 11.328125
Q 45.015625 15.765625 45.015625 23.390625
Q 45.015625 31 40.078125 35.4375
Q 35.15625 39.890625 26.703125 39.890625
Q 22.75 39.890625 18.8125 39.015625
Q 14.890625 38.140625 10.796875 36.28125
z
" id="DejaVuSans-35"/>
      </defs>
      <g transform="translate(115.984607 260.638438)scale(0.1 -0.1)">
       <use xlink:href="#DejaVuSans-32"/>
       <use x="63.623047" xlink:href="#DejaVuSans-35"/>
      </g>
     </g>
    </g>
    <g id="xtick_3">
     <g id="line2d_3">
      <g>
       <use style="stroke:#000000;stroke-width:0.8;" x="166.14876" xlink:href="#m500d5165e6" y="246.04"/>
      </g>
     </g>
     <g id="text_3">
      <!-- 50 -->
      <g transform="translate(159.78626 260.638438)scale(0.1 -0.1)">
       <use xlink:href="#DejaVuSans-35"/>
       <use x="63.623047" xlink:href="#DejaVuSans-30"/>
      </g>
     </g>
    </g>
    <g id="xtick_4">
     <g id="line2d_4">
      <g>
       <use style="stroke:#000000;stroke-width:0.8;" x="209.950413" xlink:href="#m500d5165e6" y="246.04"/>
      </g>
     </g>
     <g id="text_4">
      <!-- 75 -->
      <defs>
       <path d="M 8.203125 72.90625
L 55.078125 72.90625
L 55.078125 68.703125
L 28.609375 0
L 18.3125 0
L 43.21875 64.59375
L 8.203125 64.59375
z
" id="DejaVuSans-37"/>
      </defs>
      <g transform="translate(203.587913 260.638438)scale(0.1 -0.1)">
       <use xlink:href="#DejaVuSans-37"/>
       <use x="63.623047" xlink:href="#DejaVuSans-35"/>
      </g>
     </g>
    </g>
    <g id="xtick_5">
     <g id="line2d_5">
      <g>
       <use style="stroke:#000000;stroke-width:0.8;" x="253.752066" xlink:href="#m500d5165e6" y="246.04"/>
      </g>
     </g>
     <g id="text_5">
      <!-- 100 -->
      <defs>
       <path d="M 12.40625 8.296875
L 28.515625 8.296875
L 28.515625 63.921875
L 10.984375 60.40625
L 10.984375 69.390625
L 28.421875 72.90625
L 38.28125 72.90625
L 38.28125 8.296875
L 54.390625 8.296875
L 54.390625 0
L 12.40625 0
z
" id="DejaVuSans-31"/>
      </defs>
      <g transform="translate(244.208316 260.638438)scale(0.1 -0.1)">
       <use xlink:href="#DejaVuSans-31"/>
       <use x="63.623047" xlink:href="#DejaVuSans-30"/>
       <use x="127.246094" xlink:href="#DejaVuSans-30"/>
      </g>
     </g>
    </g>
    <g id="xtick_6">
     <g id="line2d_6">
      <g>
       <use style="stroke:#000000;stroke-width:0.8;" x="297.553719" xlink:href="#m500d5165e6" y="246.04"/>
      </g>
     </g>
     <g id="text_6">
      <!-- 125 -->
      <g transform="translate(288.009969 260.638438)scale(0.1 -0.1)">
       <use xlink:href="#DejaVuSans-31"/>
       <use x="63.623047" xlink:href="#DejaVuSans-32"/>
       <use x="127.246094" xlink:href="#DejaVuSans-35"/>
      </g>
     </g>
    </g>
    <g id="xtick_7">
     <g id="line2d_7">
      <g>
       <use style="stroke:#000000;stroke-width:0.8;" x="341.355372" xlink:href="#m500d5165e6" y="246.04"/>
      </g>
     </g>
     <g id="text_7">
      <!-- 150 -->
      <g transform="translate(331.811622 260.638438)scale(0.1 -0.1)">
       <use xlink:href="#DejaVuSans-31"/>
       <use x="63.623047" xlink:href="#DejaVuSans-35"/>
       <use x="127.246094" xlink:href="#DejaVuSans-30"/>
      </g>
     </g>
    </g>
    <g id="xtick_8">
     <g id="line2d_8">
      <g>
       <use style="stroke:#000000;stroke-width:0.8;" x="385.157025" xlink:href="#m500d5165e6" y="246.04"/>
      </g>
     </g>
     <g id="text_8">
      <!-- 175 -->
      <g transform="translate(375.613275 260.638438)scale(0.1 -0.1)">
       <use xlink:href="#DejaVuSans-31"/>
       <use x="63.623047" xlink:href="#DejaVuSans-37"/>
       <use x="127.246094" xlink:href="#DejaVuSans-35"/>
      </g>
     </g>
    </g>
    <g id="xtick_9">
     <g id="line2d_9">
      <g>
       <use style="stroke:#000000;stroke-width:0.8;" x="428.958678" xlink:href="#m500d5165e6" y="246.04"/>
      </g>
     </g>
     <g id="text_9">
      <!-- 200 -->
      <g transform="translate(419.414928 260.638438)scale(0.1 -0.1)">
       <use xlink:href="#DejaVuSans-32"/>
       <use x="63.623047" xlink:href="#DejaVuSans-30"/>
       <use x="127.246094" xlink:href="#DejaVuSans-30"/>
      </g>
     </g>
    </g>
    <g id="text_10">
     <!-- Number of simultaneous regression -->
     <defs>
      <path d="M 9.8125 72.90625
L 23.09375 72.90625
L 55.421875 11.921875
L 55.421875 72.90625
L 64.984375 72.90625
L 64.984375 0
L 51.703125 0
L 19.390625 60.984375
L 19.390625 0
L 9.8125 0
z
" id="DejaVuSans-4e"/>
      <path d="M 8.5 21.578125
L 8.5 54.6875
L 17.484375 54.6875
L 17.484375 21.921875
Q 17.484375 14.15625 20.5 10.265625
Q 23.53125 6.390625 29.59375 6.390625
Q 36.859375 6.390625 41.078125 11.03125
Q 45.3125 15.671875 45.3125 23.6875
L 45.3125 54.6875
L 54.296875 54.6875
L 54.296875 0
L 45.3125 0
L 45.3125 8.40625
Q 42.046875 3.421875 37.71875 1
Q 33.40625 -1.421875 27.6875 -1.421875
Q 18.265625 -1.421875 13.375 4.4375
Q 8.5 10.296875 8.5 21.578125
M 31.109375 56
z
" id="DejaVuSans-75"/>
      <path d="M 52 44.1875
Q 55.375 50.25 60.0625 53.125
Q 64.75 56 71.09375 56
Q 79.640625 56 84.28125 50.015625
Q 88.921875 44.046875 88.921875 33.015625
L 88.921875 0
L 79.890625 0
L 79.890625 32.71875
Q 79.890625 40.578125 77.09375 44.375
Q 74.3125 48.1875 68.609375 48.1875
Q 61.625 48.1875 57.5625 43.546875
Q 53.515625 38.921875 53.515625 30.90625
L 53.515625 0
L 44.484375 0
L 44.484375 32.71875
Q 44.484375 40.625 41.703125 44.40625
Q 38.921875 48.1875 33.109375 48.1875
Q 26.21875 48.1875 22.15625 43.53125
Q 18.109375 38.875 18.109375 30.90625
L 18.109375 0
L 9.078125 0
L 9.078125 54.6875
L 18.109375 54.6875
L 18.109375 46.1875
Q 21.1875 51.21875 25.484375 53.609375
Q 29.78125 56 35.6875 56
Q 41.65625 56 45.828125 52.96875
Q 50 49.953125 52 44.1875
" id="DejaVuSans-6d"/>
      <path d="M 48.6875 27.296875
Q 48.6875 37.203125 44.609375 42.84375
Q 40.53125 48.484375 33.40625 48.484375
Q 26.265625 48.484375 22.1875 42.84375
Q 18.109375 37.203125 18.109375 27.296875
Q 18.109375 17.390625 22.1875 11.75
Q 26.265625 6.109375 33.40625 6.109375
Q 40.53125 6.109375 44.609375 11.75
Q 48.6875 17.390625 48.6875 27.296875
M 18.109375 46.390625
Q 20.953125 51.265625 25.265625 53.625
Q 29.59375 56 35.59375 56
Q 45.5625 56 51.78125 48.09375
Q 58.015625 40.1875 58.015625 27.296875
Q 58.015625 14.40625 51.78125 6.484375
Q 45.5625 -1.421875 35.59375 -1.421875
Q 29.59375 -1.421875 25.265625 0.953125
Q 20.953125 3.328125 18.109375 8.203125
L 18.109375 0
L 9.078125 0
L 9.078125 75.984375
L 18.109375 75.984375
z
" id="DejaVuSans-62"/>
      <path d="M 56.203125 29.59375
L 56.203125 25.203125
L 14.890625 25.203125
Q 15.484375 15.921875 20.484375 11.0625
Q 25.484375 6.203125 34.421875 6.203125
Q 39.59375 6.203125 44.453125 7.46875
Q 49.3125 8.734375 54.109375 11.28125
L 54.109375 2.78125
Q 49.265625 0.734375 44.1875 -0.34375
Q 39.109375 -1.421875 33.890625 -1.421875
Q 20.796875 -1.421875 13.15625 6.1875
Q 5.515625 13.8125 5.515625 26.8125
Q 5.515625 40.234375 12.765625 48.109375
Q 20.015625 56 32.328125 56
Q 43.359375 56 49.78125 48.890625
Q 56.203125 41.796875 56.203125 29.59375
M 47.21875 32.234375
Q 47.125 39.59375 43.09375 43.984375
Q 39.0625 48.390625 32.421875 48.390625
Q 24.90625 48.390625 20.390625 44.140625
Q 15.875 39.890625 15.1875 32.171875
z
" id="DejaVuSans-65"/>
      <path d="M 41.109375 46.296875
Q 39.59375 47.171875 37.8125 47.578125
Q 36.03125 48 33.890625 48
Q 26.265625 48 22.1875 43.046875
Q 18.109375 38.09375 18.109375 28.8125
L 18.109375 0
L 9.078125 0
L 9.078125 54.6875
L 18.109375 54.6875
L 18.109375 46.1875
Q 20.953125 51.171875 25.484375 53.578125
Q 30.03125 56 36.53125 56
Q 37.453125 56 38.578125 55.875
Q 39.703125 55.765625 41.0625 55.515625
z
" id="DejaVuSans-72"/>
      <path id="DejaVuSans-20"/>
      <path d="M 30.609375 48.390625
Q 23.390625 48.390625 19.1875 42.75
Q 14.984375 37.109375 14.984375 27.296875
Q 14.984375 17.484375 19.15625 11.84375
Q 23.34375 6.203125 30.609375 6.203125
Q 37.796875 6.203125 41.984375 11.859375
Q 46.1875 17.53125 46.1875 27.296875
Q 46.1875 37.015625 41.984375 42.703125
Q 37.796875 48.390625 30.609375 48.390625
M 30.609375 56
Q 42.328125 56 49.015625 48.375
Q 55.71875 40.765625 55.71875 27.296875
Q 55.71875 13.875 49.015625 6.21875
Q 42.328125 -1.421875 30.609375 -1.421875
Q 18.84375 -1.421875 12.171875 6.21875
Q 5.515625 13.875 5.515625 27.296875
Q 5.515625 40.765625 12.171875 48.375
Q 18.84375 56 30.609375 56
" id="DejaVuSans-6f"/>
      <path d="M 37.109375 75.984375
L 37.109375 68.5
L 28.515625 68.5
Q 23.6875 68.5 21.796875 66.546875
Q 19.921875 64.59375 19.921875 59.515625
L 19.921875 54.6875
L 34.71875 54.6875
L 34.71875 47.703125
L 19.921875 47.703125
L 19.921875 0
L 10.890625 0
L 10.890625 47.703125
L 2.296875 47.703125
L 2.296875 54.6875
L 10.890625 54.6875
L 10.890625 58.5
Q 10.890625 67.625 15.140625 71.796875
Q 19.390625 75.984375 28.609375 75.984375
z
" id="DejaVuSans-66"/>
      <path d="M 44.28125 53.078125
L 44.28125 44.578125
Q 40.484375 46.53125 36.375 47.5
Q 32.28125 48.484375 27.875 48.484375
Q 21.1875 48.484375 17.84375 46.4375
Q 14.5 44.390625 14.5 40.28125
Q 14.5 37.15625 16.890625 35.375
Q 19.28125 33.59375 26.515625 31.984375
L 29.59375 31.296875
Q 39.15625 29.25 43.1875 25.515625
Q 47.21875 21.78125 47.21875 15.09375
Q 47.21875 7.46875 41.1875 3.015625
Q 35.15625 -1.421875 24.609375 -1.421875
Q 20.21875 -1.421875 15.453125 -0.5625
Q 10.6875 0.296875 5.421875 2
L 5.421875 11.28125
Q 10.40625 8.6875 15.234375 7.390625
Q 20.0625 6.109375 24.8125 6.109375
Q 31.15625 6.109375 34.5625 8.28125
Q 37.984375 10.453125 37.984375 14.40625
Q 37.984375 18.0625 35.515625 20.015625
Q 33.0625 21.96875 24.703125 23.78125
L 21.578125 24.515625
Q 13.234375 26.265625 9.515625 29.90625
Q 5.8125 33.546875 5.8125 39.890625
Q 5.8125 47.609375 11.28125 51.796875
Q 16.75 56 26.8125 56
Q 31.78125 56 36.171875 55.265625
Q 40.578125 54.546875 44.28125 53.078125
" id="DejaVuSans-73"/>
      <path d="M 9.421875 54.6875
L 18.40625 54.6875
L 18.40625 0
L 9.421875 0
z
M 9.421875 75.984375
L 18.40625 75.984375
L 18.40625 64.59375
L 9.421875 64.59375
z
" id="DejaVuSans-69"/>
      <path d="M 9.421875 75.984375
L 18.40625 75.984375
L 18.40625 0
L 9.421875 0
z
" id="DejaVuSans-6c"/>
      <path d="M 18.3125 70.21875
L 18.3125 54.6875
L 36.8125 54.6875
L 36.8125 47.703125
L 18.3125 47.703125
L 18.3125 18.015625
Q 18.3125 11.328125 20.140625 9.421875
Q 21.96875 7.515625 27.59375 7.515625
L 36.8125 7.515625
L 36.8125 0
L 27.59375 0
Q 17.1875 0 13.234375 3.875
Q 9.28125 7.765625 9.28125 18.015625
L 9.28125 47.703125
L 2.6875 47.703125
L 2.6875 54.6875
L 9.28125 54.6875
L 9.28125 70.21875
z
" id="DejaVuSans-74"/>
      <path d="M 34.28125 27.484375
Q 23.390625 27.484375 19.1875 25
Q 14.984375 22.515625 14.984375 16.5
Q 14.984375 11.71875 18.140625 8.90625
Q 21.296875 6.109375 26.703125 6.109375
Q 34.1875 6.109375 38.703125 11.40625
Q 43.21875 16.703125 43.21875 25.484375
L 43.21875 27.484375
z
M 52.203125 31.203125
L 52.203125 0
L 43.21875 0
L 43.21875 8.296875
Q 40.140625 3.328125 35.546875 0.953125
Q 30.953125 -1.421875 24.3125 -1.421875
Q 15.921875 -1.421875 10.953125 3.296875
Q 6 8.015625 6 15.921875
Q 6 25.140625 12.171875 29.828125
Q 18.359375 34.515625 30.609375 34.515625
L 43.21875 34.515625
L 43.21875 35.40625
Q 43.21875 41.609375 39.140625 45
Q 35.0625 48.390625 27.6875 48.390625
Q 23 48.390625 18.546875 47.265625
Q 14.109375 46.140625 10.015625 43.890625
L 10.015625 52.203125
Q 14.9375 54.109375 19.578125 55.046875
Q 24.21875 56 28.609375 56
Q 40.484375 56 46.34375 49.84375
Q 52.203125 43.703125 52.203125 31.203125
" id="DejaVuSans-61"/>
      <path d="M 54.890625 33.015625
L 54.890625 0
L 45.90625 0
L 45.90625 32.71875
Q 45.90625 40.484375 42.875 44.328125
Q 39.84375 48.1875 33.796875 48.1875
Q 26.515625 48.1875 22.3125 43.546875
Q 18.109375 38.921875 18.109375 30.90625
L 18.109375 0
L 9.078125 0
L 9.078125 54.6875
L 18.109375 54.6875
L 18.109375 46.1875
Q 21.34375 51.125 25.703125 53.5625
Q 30.078125 56 35.796875 56
Q 45.21875 56 50.046875 50.171875
Q 54.890625 44.34375 54.890625 33.015625
" id="DejaVuSans-6e"/>
      <path d="M 45.40625 27.984375
Q 45.40625 37.75 41.375 43.109375
Q 37.359375 48.484375 30.078125 48.484375
Q 22.859375 48.484375 18.828125 43.109375
Q 14.796875 37.75 14.796875 27.984375
Q 14.796875 18.265625 18.828125 12.890625
Q 22.859375 7.515625 30.078125 7.515625
Q 37.359375 7.515625 41.375 12.890625
Q 45.40625 18.265625 45.40625 27.984375
M 54.390625 6.78125
Q 54.390625 -7.171875 48.1875 -13.984375
Q 42 -20.796875 29.203125 -20.796875
Q 24.46875 -20.796875 20.265625 -20.09375
Q 16.0625 -19.390625 12.109375 -17.921875
L 12.109375 -9.1875
Q 16.0625 -11.328125 19.921875 -12.34375
Q 23.78125 -13.375 27.78125 -13.375
Q 36.625 -13.375 41.015625 -8.765625
Q 45.40625 -4.15625 45.40625 5.171875
L 45.40625 9.625
Q 42.625 4.78125 38.28125 2.390625
Q 33.9375 0 27.875 0
Q 17.828125 0 11.671875 7.65625
Q 5.515625 15.328125 5.515625 27.984375
Q 5.515625 40.671875 11.671875 48.328125
Q 17.828125 56 27.875 56
Q 33.9375 56 38.28125 53.609375
Q 42.625 51.21875 45.40625 46.390625
L 45.40625 54.6875
L 54.390625 54.6875
z
" id="DejaVuSans-67"/>
     </defs>
     <g transform="translate(162.541406 274.316562)scale(0.1 -0.1)">
      <use xlink:href="#DejaVuSans-4e"/>
      <use x="74.804688" xlink:href="#DejaVuSans-75"/>
      <use x="138.183594" xlink:href="#DejaVuSans-6d"/>
      <use x="235.595703" xlink:href="#DejaVuSans-62"/>
      <use x="299.072266" xlink:href="#DejaVuSans-65"/>
      <use x="360.595703" xlink:href="#DejaVuSans-72"/>
      <use x="401.708984" xlink:href="#DejaVuSans-20"/>
      <use x="433.496094" xlink:href="#DejaVuSans-6f"/>
      <use x="494.677734" xlink:href="#DejaVuSans-66"/>
      <use x="529.882812" xlink:href="#DejaVuSans-20"/>
      <use x="561.669922" xlink:href="#DejaVuSans-73"/>
      <use x="613.769531" xlink:href="#DejaVuSans-69"/>
      <use x="641.552734" xlink:href="#DejaVuSans-6d"/>
      <use x="738.964844" xlink:href="#DejaVuSans-75"/>
      <use x="802.34375" xlink:href="#DejaVuSans-6c"/>
      <use x="830.126953" xlink:href="#DejaVuSans-74"/>
      <use x="869.335938" xlink:href="#DejaVuSans-61"/>
      <use x="930.615234" xlink:href="#DejaVuSans-6e"/>
      <use x="993.994141" xlink:href="#DejaVuSans-65"/>
      <use x="1055.517578" xlink:href="#DejaVuSans-6f"/>
      <use x="1116.699219" xlink:href="#DejaVuSans-75"/>
      <use x="1180.078125" xlink:href="#DejaVuSans-73"/>
      <use x="1232.177734" xlink:href="#DejaVuSans-20"/>
      <use x="1263.964844" xlink:href="#DejaVuSans-72"/>
      <use x="1305.046875" xlink:href="#DejaVuSans-65"/>
      <use x="1366.570312" xlink:href="#DejaVuSans-67"/>
      <use x="1430.046875" xlink:href="#DejaVuSans-72"/>
      <use x="1471.128906" xlink:href="#DejaVuSans-65"/>
      <use x="1532.652344" xlink:href="#DejaVuSans-73"/>
      <use x="1584.751953" xlink:href="#DejaVuSans-73"/>
      <use x="1636.851562" xlink:href="#DejaVuSans-69"/>
      <use x="1664.634766" xlink:href="#DejaVuSans-6f"/>
      <use x="1725.816406" xlink:href="#DejaVuSans-6e"/>
     </g>
    </g>
   </g>
   <g id="matplotlib.axis_2">
    <g id="ytick_1">
     <g id="line2d_10">
      <defs>
       <path d="M 0 0
L -3.5 0
" id="m895590b087" style="stroke:#000000;stroke-width:0.8;"/>
      </defs>
      <g>
       <use style="stroke:#000000;stroke-width:0.8;" x="61.2" xlink:href="#m895590b087" y="228.637273"/>
      </g>
     </g>
     <g id="text_11">
      <!-- 0.01 -->
      <defs>
       <path d="M 10.6875 12.40625
L 21 12.40625
L 21 0
L 10.6875 0
z
" id="DejaVuSans-2e"/>
      </defs>
      <g transform="translate(31.934375 232.436492)scale(0.1 -0.1)">
       <use xlink:href="#DejaVuSans-30"/>
       <use x="63.623047" xlink:href="#DejaVuSans-2e"/>
       <use x="95.410156" xlink:href="#DejaVuSans-30"/>
       <use x="159.033203" xlink:href="#DejaVuSans-31"/>
      </g>
     </g>
    </g>
    <g id="ytick_2">
     <g id="line2d_11">
      <g>
       <use style="stroke:#000000;stroke-width:0.8;" x="61.2" xlink:href="#m895590b087" y="200.114774"/>
      </g>
     </g>
     <g id="text_12">
      <!-- 0.02 -->
      <g transform="translate(31.934375 203.913993)scale(0.1 -0.1)">
       <use xlink:href="#DejaVuSans-30"/>
       <use x="63.623047" xlink:href="#DejaVuSans-2e"/>
       <use x="95.410156" xlink:href="#DejaVuSans-30"/>
       <use x="159.033203" xlink:href="#DejaVuSans-32"/>
      </g>
     </g>
    </g>
    <g id="ytick_3">
     <g id="line2d_12">
      <g>
       <use style="stroke:#000000;stroke-width:0.8;" x="61.2" xlink:href="#m895590b087" y="171.592276"/>
      </g>
     </g>
     <g id="text_13">
      <!-- 0.03 -->
      <defs>
       <path d="M 40.578125 39.3125
Q 47.65625 37.796875 51.625 33
Q 55.609375 28.21875 55.609375 21.1875
Q 55.609375 10.40625 48.1875 4.484375
Q 40.765625 -1.421875 27.09375 -1.421875
Q 22.515625 -1.421875 17.65625 -0.515625
Q 12.796875 0.390625 7.625 2.203125
L 7.625 11.71875
Q 11.71875 9.328125 16.59375 8.109375
Q 21.484375 6.890625 26.8125 6.890625
Q 36.078125 6.890625 40.9375 10.546875
Q 45.796875 14.203125 45.796875 21.1875
Q 45.796875 27.640625 41.28125 31.265625
Q 36.765625 34.90625 28.71875 34.90625
L 20.21875 34.90625
L 20.21875 43.015625
L 29.109375 43.015625
Q 36.375 43.015625 40.234375 45.921875
Q 44.09375 48.828125 44.09375 54.296875
Q 44.09375 59.90625 40.109375 62.90625
Q 36.140625 65.921875 28.71875 65.921875
Q 24.65625 65.921875 20.015625 65.03125
Q 15.375 64.15625 9.8125 62.3125
L 9.8125 71.09375
Q 15.4375 72.65625 20.34375 73.4375
Q 25.25 74.21875 29.59375 74.21875
Q 40.828125 74.21875 47.359375 69.109375
Q 53.90625 64.015625 53.90625 55.328125
Q 53.90625 49.265625 50.4375 45.09375
Q 46.96875 40.921875 40.578125 39.3125
" id="DejaVuSans-33"/>
      </defs>
      <g transform="translate(31.934375 175.391494)scale(0.1 -0.1)">
       <use xlink:href="#DejaVuSans-30"/>
       <use x="63.623047" xlink:href="#DejaVuSans-2e"/>
       <use x="95.410156" xlink:href="#DejaVuSans-30"/>
       <use x="159.033203" xlink:href="#DejaVuSans-33"/>
      </g>
     </g>
    </g>
    <g id="ytick_4">
     <g id="line2d_13">
      <g>
       <use style="stroke:#000000;stroke-width:0.8;" x="61.2" xlink:href="#m895590b087" y="143.069777"/>
      </g>
     </g>
     <g id="text_14">
      <!-- 0.04 -->
      <defs>
       <path d="M 37.796875 64.3125
L 12.890625 25.390625
L 37.796875 25.390625
z
M 35.203125 72.90625
L 47.609375 72.90625
L 47.609375 25.390625
L 58.015625 25.390625
L 58.015625 17.1875
L 47.609375 17.1875
L 47.609375 0
L 37.796875 0
L 37.796875 17.1875
L 4.890625 17.1875
L 4.890625 26.703125
z
" id="DejaVuSans-34"/>
      </defs>
      <g transform="translate(31.934375 146.868995)scale(0.1 -0.1)">
       <use xlink:href="#DejaVuSans-30"/>
       <use x="63.623047" xlink:href="#DejaVuSans-2e"/>
       <use x="95.410156" xlink:href="#DejaVuSans-30"/>
       <use x="159.033203" xlink:href="#DejaVuSans-34"/>
      </g>
     </g>
    </g>
    <g id="ytick_5">
     <g id="line2d_14">
      <g>
       <use style="stroke:#000000;stroke-width:0.8;" x="61.2" xlink:href="#m895590b087" y="114.547278"/>
      </g>
     </g>
     <g id="text_15">
      <!-- 0.05 -->
      <g transform="translate(31.934375 118.346496)scale(0.1 -0.1)">
       <use xlink:href="#DejaVuSans-30"/>
       <use x="63.623047" xlink:href="#DejaVuSans-2e"/>
       <use x="95.410156" xlink:href="#DejaVuSans-30"/>
       <use x="159.033203" xlink:href="#DejaVuSans-35"/>
      </g>
     </g>
    </g>
    <g id="ytick_6">
     <g id="line2d_15">
      <g>
       <use style="stroke:#000000;stroke-width:0.8;" x="61.2" xlink:href="#m895590b087" y="86.024779"/>
      </g>
     </g>
     <g id="text_16">
      <!-- 0.06 -->
      <defs>
       <path d="M 33.015625 40.375
Q 26.375 40.375 22.484375 35.828125
Q 18.609375 31.296875 18.609375 23.390625
Q 18.609375 15.53125 22.484375 10.953125
Q 26.375 6.390625 33.015625 6.390625
Q 39.65625 6.390625 43.53125 10.953125
Q 47.40625 15.53125 47.40625 23.390625
Q 47.40625 31.296875 43.53125 35.828125
Q 39.65625 40.375 33.015625 40.375
M 52.59375 71.296875
L 52.59375 62.3125
Q 48.875 64.0625 45.09375 64.984375
Q 41.3125 65.921875 37.59375 65.921875
Q 27.828125 65.921875 22.671875 59.328125
Q 17.53125 52.734375 16.796875 39.40625
Q 19.671875 43.65625 24.015625 45.921875
Q 28.375 48.1875 33.59375 48.1875
Q 44.578125 48.1875 50.953125 41.515625
Q 57.328125 34.859375 57.328125 23.390625
Q 57.328125 12.15625 50.6875 5.359375
Q 44.046875 -1.421875 33.015625 -1.421875
Q 20.359375 -1.421875 13.671875 8.265625
Q 6.984375 17.96875 6.984375 36.375
Q 6.984375 53.65625 15.1875 63.9375
Q 23.390625 74.21875 37.203125 74.21875
Q 40.921875 74.21875 44.703125 73.484375
Q 48.484375 72.75 52.59375 71.296875
" id="DejaVuSans-36"/>
      </defs>
      <g transform="translate(31.934375 89.823998)scale(0.1 -0.1)">
       <use xlink:href="#DejaVuSans-30"/>
       <use x="63.623047" xlink:href="#DejaVuSans-2e"/>
       <use x="95.410156" xlink:href="#DejaVuSans-30"/>
       <use x="159.033203" xlink:href="#DejaVuSans-36"/>
      </g>
     </g>
    </g>
    <g id="ytick_7">
     <g id="line2d_16">
      <g>
       <use style="stroke:#000000;stroke-width:0.8;" x="61.2" xlink:href="#m895590b087" y="57.50228"/>
      </g>
     </g>
     <g id="text_17">
      <!-- 0.07 -->
      <g transform="translate(31.934375 61.301499)scale(0.1 -0.1)">
       <use xlink:href="#DejaVuSans-30"/>
       <use x="63.623047" xlink:href="#DejaVuSans-2e"/>
       <use x="95.410156" xlink:href="#DejaVuSans-30"/>
       <use x="159.033203" xlink:href="#DejaVuSans-37"/>
      </g>
     </g>
    </g>
    <g id="ytick_8">
     <g id="line2d_17">
      <g>
       <use style="stroke:#000000;stroke-width:0.8;" x="61.2" xlink:href="#m895590b087" y="28.979781"/>
      </g>
     </g>
     <g id="text_18">
      <!-- 0.08 -->
      <defs>
       <path d="M 31.78125 34.625
Q 24.75 34.625 20.71875 30.859375
Q 16.703125 27.09375 16.703125 20.515625
Q 16.703125 13.921875 20.71875 10.15625
Q 24.75 6.390625 31.78125 6.390625
Q 38.8125 6.390625 42.859375 10.171875
Q 46.921875 13.96875 46.921875 20.515625
Q 46.921875 27.09375 42.890625 30.859375
Q 38.875 34.625 31.78125 34.625
M 21.921875 38.8125
Q 15.578125 40.375 12.03125 44.71875
Q 8.5 49.078125 8.5 55.328125
Q 8.5 64.0625 14.71875 69.140625
Q 20.953125 74.21875 31.78125 74.21875
Q 42.671875 74.21875 48.875 69.140625
Q 55.078125 64.0625 55.078125 55.328125
Q 55.078125 49.078125 51.53125 44.71875
Q 48 40.375 41.703125 38.8125
Q 48.828125 37.15625 52.796875 32.3125
Q 56.78125 27.484375 56.78125 20.515625
Q 56.78125 9.90625 50.3125 4.234375
Q 43.84375 -1.421875 31.78125 -1.421875
Q 19.734375 -1.421875 13.25 4.234375
Q 6.78125 9.90625 6.78125 20.515625
Q 6.78125 27.484375 10.78125 32.3125
Q 14.796875 37.15625 21.921875 38.8125
M 18.3125 54.390625
Q 18.3125 48.734375 21.84375 45.5625
Q 25.390625 42.390625 31.78125 42.390625
Q 38.140625 42.390625 41.71875 45.5625
Q 45.3125 48.734375 45.3125 54.390625
Q 45.3125 60.0625 41.71875 63.234375
Q 38.140625 66.40625 31.78125 66.40625
Q 25.390625 66.40625 21.84375 63.234375
Q 18.3125 60.0625 18.3125 54.390625
" id="DejaVuSans-38"/>
      </defs>
      <g transform="translate(31.934375 32.779)scale(0.1 -0.1)">
       <use xlink:href="#DejaVuSans-30"/>
       <use x="63.623047" xlink:href="#DejaVuSans-2e"/>
       <use x="95.410156" xlink:href="#DejaVuSans-30"/>
       <use x="159.033203" xlink:href="#DejaVuSans-38"/>
      </g>
     </g>
    </g>
    <g id="text_19">
     <!-- Time [s] (lower is better) -->
     <defs>
      <path d="M -0.296875 72.90625
L 61.375 72.90625
L 61.375 64.59375
L 35.5 64.59375
L 35.5 0
L 25.59375 0
L 25.59375 64.59375
L -0.296875 64.59375
z
" id="DejaVuSans-54"/>
      <path d="M 8.59375 75.984375
L 29.296875 75.984375
L 29.296875 69
L 17.578125 69
L 17.578125 -6.203125
L 29.296875 -6.203125
L 29.296875 -13.1875
L 8.59375 -13.1875
z
" id="DejaVuSans-5b"/>
      <path d="M 30.421875 75.984375
L 30.421875 -13.1875
L 9.71875 -13.1875
L 9.71875 -6.203125
L 21.390625 -6.203125
L 21.390625 69
L 9.71875 69
L 9.71875 75.984375
z
" id="DejaVuSans-5d"/>
      <path d="M 31 75.875
Q 24.46875 64.65625 21.28125 53.65625
Q 18.109375 42.671875 18.109375 31.390625
Q 18.109375 20.125 21.3125 9.0625
Q 24.515625 -2 31 -13.1875
L 23.1875 -13.1875
Q 15.875 -1.703125 12.234375 9.375
Q 8.59375 20.453125 8.59375 31.390625
Q 8.59375 42.28125 12.203125 53.3125
Q 15.828125 64.359375 23.1875 75.875
z
" id="DejaVuSans-28"/>
      <path d="M 4.203125 54.6875
L 13.1875 54.6875
L 24.421875 12.015625
L 35.59375 54.6875
L 46.1875 54.6875
L 57.421875 12.015625
L 68.609375 54.6875
L 77.59375 54.6875
L 63.28125 0
L 52.6875 0
L 40.921875 44.828125
L 29.109375 0
L 18.5 0
z
" id="DejaVuSans-77"/>
      <path d="M 8.015625 75.875
L 15.828125 75.875
Q 23.140625 64.359375 26.78125 53.3125
Q 30.421875 42.28125 30.421875 31.390625
Q 30.421875 20.453125 26.78125 9.375
Q 23.140625 -1.703125 15.828125 -13.1875
L 8.015625 -13.1875
Q 14.5 -2 17.703125 9.0625
Q 20.90625 20.125 20.90625 31.390625
Q 20.90625 42.671875 17.703125 53.65625
Q 14.5 64.65625 8.015625 75.875
" id="DejaVuSans-29"/>
     </defs>
     <g transform="translate(25.854687 198.577969)rotate(-90)scale(0.1 -0.1)">
      <use xlink:href="#DejaVuSans-54"/>
      <use x="61.037109" xlink:href="#DejaVuSans-69"/>
      <use x="88.820312" xlink:href="#DejaVuSans-6d"/>
      <use x="186.232422" xlink:href="#DejaVuSans-65"/>
      <use x="247.755859" xlink:href="#DejaVuSans-20"/>
      <use x="279.542969" xlink:href="#DejaVuSans-5b"/>
      <use x="318.556641" xlink:href="#DejaVuSans-73"/>
      <use x="370.65625" xlink:href="#DejaVuSans-5d"/>
      <use x="409.669922" xlink:href="#DejaVuSans-20"/>
      <use x="441.457031" xlink:href="#DejaVuSans-28"/>
      <use x="480.470703" xlink:href="#DejaVuSans-6c"/>
      <use x="508.253906" xlink:href="#DejaVuSans-6f"/>
      <use x="569.435547" xlink:href="#DejaVuSans-77"/>
      <use x="651.222656" xlink:href="#DejaVuSans-65"/>
      <use x="712.746094" xlink:href="#DejaVuSans-72"/>
      <use x="753.859375" xlink:href="#DejaVuSans-20"/>
      <use x="785.646484" xlink:href="#DejaVuSans-69"/>
      <use x="813.429688" xlink:href="#DejaVuSans-73"/>
      <use x="865.529297" xlink:href="#DejaVuSans-20"/>
      <use x="897.316406" xlink:href="#DejaVuSans-62"/>
      <use x="960.792969" xlink:href="#DejaVuSans-65"/>
      <use x="1022.316406" xlink:href="#DejaVuSans-74"/>
      <use x="1061.525391" xlink:href="#DejaVuSans-74"/>
      <use x="1100.734375" xlink:href="#DejaVuSans-65"/>
      <use x="1162.257812" xlink:href="#DejaVuSans-72"/>
      <use x="1203.371094" xlink:href="#DejaVuSans-29"/>
     </g>
    </g>
   </g>
   <g id="line2d_18">
    <path clip-path="url(#p06bd7473cd)" d="M 78.545455 234.509354
L 80.297521 236.078182
L 82.049587 230.72023
L 83.801653 218.009122
L 85.553719 229.728748
L 87.305785 222.264065
L 89.057851 233.332903
L 90.809917 234.495753
L 94.31405 232.730397
L 96.066116 232.992889
L 97.818182 232.865043
L 99.570248 231.834799
L 101.322314 230.984762
L 103.07438 228.950794
L 104.826446 215.544015
L 106.578512 224.963782
L 108.330579 225.660132
L 110.082645 225.347998
L 115.338843 222.672763
L 117.090909 221.43647
L 118.842975 220.434786
L 120.595041 219.582709
L 124.099174 216.657903
L 125.85124 216.137001
L 127.603306 215.20128
L 129.355372 214.015989
L 131.107438 213.259116
L 132.859504 211.921499
L 134.61157 210.927296
L 136.363636 209.788247
L 139.867769 208.181337
L 141.619835 206.670992
L 143.371901 206.001163
L 145.123967 203.84887
L 146.876033 203.194682
L 148.628099 202.751983
L 150.380165 201.689097
L 152.132231 200.861501
L 153.884298 199.060783
L 155.636364 198.263789
L 157.38843 197.652442
L 159.140496 196.080215
L 160.892562 195.819083
L 162.644628 193.802116
L 164.396694 193.319975
L 166.14876 192.616825
L 167.900826 177.960832
L 169.652893 189.107193
L 171.404959 185.603002
L 173.157025 187.976985
L 174.909091 186.756332
L 176.661157 185.796811
L 181.917355 183.22902
L 183.669421 181.462303
L 185.421488 160.740449
L 187.173554 178.925794
L 188.92562 178.308327
L 190.677686 177.22776
L 192.429752 176.808862
L 194.181818 176.273679
L 195.933884 173.427076
L 197.68595 173.758251
L 199.438017 172.876253
L 202.942149 170.070451
L 204.694215 163.3334
L 206.446281 161.761853
L 208.198347 166.753948
L 209.950413 166.265007
L 211.702479 165.41565
L 213.454545 163.705377
L 215.206612 163.251797
L 216.958678 162.15899
L 220.46281 159.501435
L 222.214876 158.884648
L 223.966942 157.402864
L 225.719008 156.894202
L 227.471074 155.701431
L 229.22314 148.820214
L 230.975207 153.13772
L 232.727273 152.43797
L 234.479339 151.50973
L 236.231405 146.021213
L 237.983471 148.644086
L 239.735537 146.826368
L 241.487603 147.230985
L 243.239669 146.009652
L 244.991736 145.584634
L 246.743802 143.525505
L 248.495868 143.473823
L 250.247934 142.149126
L 252 141.282768
L 253.752066 139.628937
L 257.256198 138.446366
L 259.008264 136.521203
L 260.760331 136.474961
L 262.512397 132.085371
L 264.264463 133.581436
L 266.016529 133.190419
L 267.768595 130.837517
L 269.520661 130.944282
L 271.272727 124.985865
L 273.024793 127.518294
L 274.77686 126.668257
L 276.528926 124.952543
L 278.280992 125.486366
L 280.033058 124.202471
L 281.785124 123.179707
L 283.53719 121.842769
L 285.289256 118.038685
L 287.041322 119.080489
L 288.793388 119.074369
L 290.545455 116.850673
L 292.297521 117.338254
L 294.049587 115.225403
L 295.801653 115.485174
L 297.553719 112.978586
L 299.305785 113.515809
L 301.057851 110.812012
L 302.809917 111.067023
L 304.561983 109.211223
L 306.31405 105.051484
L 308.066116 104.852235
L 309.818182 106.912724
L 311.570248 104.606064
L 313.322314 104.877396
L 315.07438 103.34937
L 316.826446 102.048474
L 318.578512 102.049834
L 320.330579 100.020626
L 322.082645 99.726174
L 323.834711 97.818691
L 325.586777 93.900362
L 327.338843 95.972412
L 329.090909 94.603513
L 330.842975 94.259418
L 332.595041 92.632107
L 334.347107 92.158127
L 336.099174 90.700824
L 337.85124 90.492735
L 339.603306 86.357476
L 341.355372 87.272796
L 343.107438 84.907654
L 346.61157 84.977017
L 348.363636 83.739363
L 350.115702 82.167815
L 351.867769 81.672074
L 353.619835 79.72651
L 355.371901 79.665307
L 358.876033 76.904388
L 360.628099 74.318917
L 362.380165 74.553527
L 364.132231 73.149946
L 365.884298 72.059859
L 367.636364 67.579826
L 369.38843 70.761683
L 371.140496 70.214939
L 372.892562 68.633871
L 374.644628 67.464221
L 376.396694 66.004878
L 378.14876 65.651262
L 379.900826 64.68086
L 381.652893 63.880466
L 383.404959 62.338839
L 385.157025 61.448681
L 386.909091 61.539805
L 388.661157 59.372551
L 390.413223 58.262063
L 392.165289 58.41031
L 393.917355 53.802431
L 395.669421 55.307336
L 399.173554 53.601822
L 400.92562 52.331527
L 402.677686 50.77018
L 404.429752 50.369642
L 406.181818 48.416598
L 407.933884 47.658365
L 409.68595 47.134063
L 411.438017 46.923934
L 413.190083 43.992327
L 414.942149 43.209613
L 416.694215 36.841818
L 418.446281 41.036239
L 420.198347 40.086918
L 421.950413 39.697942
L 423.702479 37.8197
L 425.454545 37.714296
L 425.454545 37.714296
" style="fill:none;stroke:#1f77b4;stroke-linecap:square;stroke-width:1.5;"/>
   </g>
   <g id="line2d_19">
    <path clip-path="url(#p06bd7473cd)" d="M 78.545455 197.655163
L 80.297521 205.021921
L 82.049587 207.714157
L 83.801653 206.303096
L 85.553719 206.575788
L 89.057851 205.138886
L 90.809917 204.789351
L 92.561983 205.70875
L 94.31405 205.361935
L 96.066116 205.437419
L 97.818182 205.179688
L 99.570248 204.495578
L 101.322314 198.30119
L 103.07438 203.180401
L 106.578512 203.831189
L 108.330579 204.433015
L 110.082645 204.408534
L 113.586777 203.565978
L 115.338843 204.107961
L 117.090909 203.064796
L 118.842975 204.474497
L 120.595041 203.466014
L 122.347107 203.526536
L 124.099174 204.129722
L 125.85124 203.973995
L 127.603306 203.502055
L 129.355372 202.868948
L 131.107438 203.023314
L 132.859504 203.37965
L 134.61157 203.435412
L 136.363636 199.656489
L 138.115702 202.23108
L 139.867769 203.060036
L 141.619835 203.338168
L 143.371901 203.046435
L 145.123967 203.273565
L 146.876033 198.75817
L 148.628099 201.898546
L 150.380165 201.873385
L 152.132231 202.424889
L 153.884298 201.99511
L 155.636364 202.386127
L 157.38843 202.421488
L 159.140496 202.292283
L 160.892562 203.062756
L 162.644628 203.667302
L 166.14876 202.747222
L 167.900826 202.836986
L 169.652893 203.291926
L 171.404959 203.218483
L 173.157025 202.588096
L 174.909091 202.23652
L 178.413223 202.44665
L 180.165289 201.751659
L 181.917355 201.351802
L 185.421488 202.266442
L 187.173554 201.568052
L 188.92562 201.021308
L 190.677686 192.03472
L 192.429752 199.984263
L 194.181818 200.346039
L 195.933884 199.621808
L 197.68595 200.683333
L 199.438017 201.083871
L 201.190083 201.06075
L 202.942149 200.892102
L 204.694215 201.421165
L 206.446281 200.696254
L 208.198347 201.07639
L 209.950413 195.081251
L 211.702479 199.298114
L 213.454545 199.829216
L 215.206612 200.585409
L 216.958678 200.521486
L 218.710744 200.273956
L 222.214876 200.850621
L 223.966942 199.370877
L 225.719008 200.180112
L 227.471074 199.839417
L 230.975207 199.597326
L 232.727273 199.510283
L 234.479339 197.800009
L 236.231405 198.776531
L 237.983471 198.317511
L 239.735537 198.548721
L 241.487603 198.607884
L 243.239669 199.059423
L 244.991736 198.416115
L 246.743802 199.005701
L 248.495868 198.403195
L 250.247934 198.835014
L 253.752066 198.356273
L 255.504132 198.431076
L 259.008264 198.080861
L 260.760331 198.443997
L 262.512397 197.678284
L 264.264463 198.204626
L 266.016529 197.82653
L 267.768595 197.672163
L 269.520661 198.019658
L 271.272727 197.393351
L 274.77686 197.206343
L 276.528926 196.498433
L 278.280992 197.025455
L 280.033058 195.212497
L 281.785124 196.861568
L 283.53719 196.586156
L 285.289256 196.865649
L 287.041322 196.19514
L 288.793388 196.620158
L 290.545455 196.603837
L 292.297521 196.365827
L 294.049587 196.790165
L 295.801653 196.699721
L 297.553719 196.076814
L 299.305785 196.178139
L 301.057851 196.401868
L 302.809917 195.765361
L 304.561983 196.222341
L 306.31405 192.173446
L 308.066116 191.057518
L 309.818182 195.523951
L 311.570248 195.882326
L 313.322314 195.632755
L 315.07438 195.693958
L 316.826446 195.631395
L 318.578512 195.420586
L 320.330579 194.775918
L 322.082645 195.669477
L 323.834711 196.291024
L 325.586777 197.765327
L 327.338843 195.642276
L 329.090909 195.772161
L 332.595041 194.903764
L 337.85124 195.856485
L 339.603306 194.850721
L 341.355372 195.262139
L 343.107438 193.700112
L 344.859504 194.556269
L 346.61157 191.174483
L 348.363636 194.293097
L 350.115702 193.911601
L 351.867769 195.007128
L 353.619835 194.82624
L 355.371901 193.096926
L 357.123967 194.298538
L 358.876033 193.43558
L 360.628099 193.989804
L 364.132231 197.049256
L 365.884298 194.671874
L 367.636364 193.66475
L 369.38843 194.420943
L 371.140496 195.548432
L 372.892562 196.312105
L 374.644628 194.217614
L 376.396694 194.34342
L 378.14876 194.203334
L 379.900826 192.604584
L 381.652893 192.894277
L 383.404959 193.521944
L 385.157025 193.363497
L 386.909091 193.881
L 388.661157 193.604228
L 390.413223 194.075488
L 392.165289 194.063928
L 393.917355 193.399539
L 395.669421 192.04084
L 397.421488 193.261493
L 399.173554 192.682108
L 400.92562 193.41858
L 402.677686 193.621908
L 404.429752 194.028566
L 406.181818 195.389985
L 407.933884 193.693312
L 409.68595 194.035366
L 411.438017 195.149934
L 413.190083 191.81643
L 414.942149 192.941199
L 416.694215 192.563783
L 418.446281 192.620225
L 420.198347 194.499146
L 421.950413 194.556949
L 423.702479 194.387621
L 425.454545 193.702832
L 425.454545 193.702832
" style="fill:none;stroke:#ff7f0e;stroke-linecap:square;stroke-width:1.5;"/>
   </g>
   <g id="patch_3">
    <path d="M 61.2 246.04
L 61.2 26.88
" style="fill:none;stroke:#000000;stroke-linecap:square;stroke-linejoin:miter;stroke-width:0.8;"/>
   </g>
   <g id="patch_4">
    <path d="M 442.8 246.04
L 442.8 26.88
" style="fill:none;stroke:#000000;stroke-linecap:square;stroke-linejoin:miter;stroke-width:0.8;"/>
   </g>
   <g id="patch_5">
    <path d="M 61.2 246.04
L 442.8 246.04
" style="fill:none;stroke:#000000;stroke-linecap:square;stroke-linejoin:miter;stroke-width:0.8;"/>
   </g>
   <g id="patch_6">
    <path d="M 61.2 26.88
L 442.8 26.88
" style="fill:none;stroke:#000000;stroke-linecap:square;stroke-linejoin:miter;stroke-width:0.8;"/>
   </g>
   <g id="text_20">
    <!-- Regression time in function of number of simultaneous regression, fixed data size -->
    <defs>
     <path d="M 44.390625 34.1875
Q 47.5625 33.109375 50.5625 29.59375
Q 53.5625 26.078125 56.59375 19.921875
L 66.609375 0
L 56 0
L 46.6875 18.703125
Q 43.0625 26.03125 39.671875 28.421875
Q 36.28125 30.8125 30.421875 30.8125
L 19.671875 30.8125
L 19.671875 0
L 9.8125 0
L 9.8125 72.90625
L 32.078125 72.90625
Q 44.578125 72.90625 50.734375 67.671875
Q 56.890625 62.453125 56.890625 51.90625
Q 56.890625 45.015625 53.6875 40.46875
Q 50.484375 35.9375 44.390625 34.1875
M 19.671875 64.796875
L 19.671875 38.921875
L 32.078125 38.921875
Q 39.203125 38.921875 42.84375 42.21875
Q 46.484375 45.515625 46.484375 51.90625
Q 46.484375 58.296875 42.84375 61.546875
Q 39.203125 64.796875 32.078125 64.796875
z
" id="DejaVuSans-52"/>
     <path d="M 48.78125 52.59375
L 48.78125 44.1875
Q 44.96875 46.296875 41.140625 47.34375
Q 37.3125 48.390625 33.40625 48.390625
Q 24.65625 48.390625 19.8125 42.84375
Q 14.984375 37.3125 14.984375 27.296875
Q 14.984375 17.28125 19.8125 11.734375
Q 24.65625 6.203125 33.40625 6.203125
Q 37.3125 6.203125 41.140625 7.25
Q 44.96875 8.296875 48.78125 10.40625
L 48.78125 2.09375
Q 45.015625 0.34375 40.984375 -0.53125
Q 36.96875 -1.421875 32.421875 -1.421875
Q 20.0625 -1.421875 12.78125 6.34375
Q 5.515625 14.109375 5.515625 27.296875
Q 5.515625 40.671875 12.859375 48.328125
Q 20.21875 56 33.015625 56
Q 37.15625 56 41.109375 55.140625
Q 45.0625 54.296875 48.78125 52.59375
" id="DejaVuSans-63"/>
     <path d="M 11.71875 12.40625
L 22.015625 12.40625
L 22.015625 4
L 14.015625 -11.625
L 7.71875 -11.625
L 11.71875 4
z
" id="DejaVuSans-2c"/>
     <path d="M 54.890625 54.6875
L 35.109375 28.078125
L 55.90625 0
L 45.3125 0
L 29.390625 21.484375
L 13.484375 0
L 2.875 0
L 24.125 28.609375
L 4.6875 54.6875
L 15.28125 54.6875
L 29.78125 35.203125
L 44.28125 54.6875
z
" id="DejaVuSans-78"/>
     <path d="M 45.40625 46.390625
L 45.40625 75.984375
L 54.390625 75.984375
L 54.390625 0
L 45.40625 0
L 45.40625 8.203125
Q 42.578125 3.328125 38.25 0.953125
Q 33.9375 -1.421875 27.875 -1.421875
Q 17.96875 -1.421875 11.734375 6.484375
Q 5.515625 14.40625 5.515625 27.296875
Q 5.515625 40.1875 11.734375 48.09375
Q 17.96875 56 27.875 56
Q 33.9375 56 38.25 53.625
Q 42.578125 51.265625 45.40625 46.390625
M 14.796875 27.296875
Q 14.796875 17.390625 18.875 11.75
Q 22.953125 6.109375 30.078125 6.109375
Q 37.203125 6.109375 41.296875 11.75
Q 45.40625 17.390625 45.40625 27.296875
Q 45.40625 37.203125 41.296875 42.84375
Q 37.203125 48.484375 30.078125 48.484375
Q 22.953125 48.484375 18.875 42.84375
Q 14.796875 37.203125 14.796875 27.296875
" id="DejaVuSans-64"/>
     <path d="M 5.515625 54.6875
L 48.1875 54.6875
L 48.1875 46.484375
L 14.40625 7.171875
L 48.1875 7.171875
L 48.1875 0
L 4.296875 0
L 4.296875 8.203125
L 38.09375 47.515625
L 5.515625 47.515625
z
" id="DejaVuSans-7a"/>
    </defs>
    <g transform="translate(5.665312 20.88)scale(0.12 -0.12)">
     <use xlink:href="#DejaVuSans-52"/>
     <use x="69.419922" xlink:href="#DejaVuSans-65"/>
     <use x="130.943359" xlink:href="#DejaVuSans-67"/>
     <use x="194.419922" xlink:href="#DejaVuSans-72"/>
     <use x="235.501953" xlink:href="#DejaVuSans-65"/>
     <use x="297.025391" xlink:href="#DejaVuSans-73"/>
     <use x="349.125" xlink:href="#DejaVuSans-73"/>
     <use x="401.224609" xlink:href="#DejaVuSans-69"/>
     <use x="429.007812" xlink:href="#DejaVuSans-6f"/>
     <use x="490.189453" xlink:href="#DejaVuSans-6e"/>
     <use x="553.568359" xlink:href="#DejaVuSans-20"/>
     <use x="585.355469" xlink:href="#DejaVuSans-74"/>
     <use x="624.564453" xlink:href="#DejaVuSans-69"/>
     <use x="652.347656" xlink:href="#DejaVuSans-6d"/>
     <use x="749.759766" xlink:href="#DejaVuSans-65"/>
     <use x="811.283203" xlink:href="#DejaVuSans-20"/>
     <use x="843.070312" xlink:href="#DejaVuSans-69"/>
     <use x="870.853516" xlink:href="#DejaVuSans-6e"/>
     <use x="934.232422" xlink:href="#DejaVuSans-20"/>
     <use x="966.019531" xlink:href="#DejaVuSans-66"/>
     <use x="1001.224609" xlink:href="#DejaVuSans-75"/>
     <use x="1064.603516" xlink:href="#DejaVuSans-6e"/>
     <use x="1127.982422" xlink:href="#DejaVuSans-63"/>
     <use x="1182.962891" xlink:href="#DejaVuSans-74"/>
     <use x="1222.171875" xlink:href="#DejaVuSans-69"/>
     <use x="1249.955078" xlink:href="#DejaVuSans-6f"/>
     <use x="1311.136719" xlink:href="#DejaVuSans-6e"/>
     <use x="1374.515625" xlink:href="#DejaVuSans-20"/>
     <use x="1406.302734" xlink:href="#DejaVuSans-6f"/>
     <use x="1467.484375" xlink:href="#DejaVuSans-66"/>
     <use x="1502.689453" xlink:href="#DejaVuSans-20"/>
     <use x="1534.476562" xlink:href="#DejaVuSans-6e"/>
     <use x="1597.855469" xlink:href="#DejaVuSans-75"/>
     <use x="1661.234375" xlink:href="#DejaVuSans-6d"/>
     <use x="1758.646484" xlink:href="#DejaVuSans-62"/>
     <use x="1822.123047" xlink:href="#DejaVuSans-65"/>
     <use x="1883.646484" xlink:href="#DejaVuSans-72"/>
     <use x="1924.759766" xlink:href="#DejaVuSans-20"/>
     <use x="1956.546875" xlink:href="#DejaVuSans-6f"/>
     <use x="2017.728516" xlink:href="#DejaVuSans-66"/>
     <use x="2052.933594" xlink:href="#DejaVuSans-20"/>
     <use x="2084.720703" xlink:href="#DejaVuSans-73"/>
     <use x="2136.820312" xlink:href="#DejaVuSans-69"/>
     <use x="2164.603516" xlink:href="#DejaVuSans-6d"/>
     <use x="2262.015625" xlink:href="#DejaVuSans-75"/>
     <use x="2325.394531" xlink:href="#DejaVuSans-6c"/>
     <use x="2353.177734" xlink:href="#DejaVuSans-74"/>
     <use x="2392.386719" xlink:href="#DejaVuSans-61"/>
     <use x="2453.666016" xlink:href="#DejaVuSans-6e"/>
     <use x="2517.044922" xlink:href="#DejaVuSans-65"/>
     <use x="2578.568359" xlink:href="#DejaVuSans-6f"/>
     <use x="2639.75" xlink:href="#DejaVuSans-75"/>
     <use x="2703.128906" xlink:href="#DejaVuSans-73"/>
     <use x="2755.228516" xlink:href="#DejaVuSans-20"/>
     <use x="2787.015625" xlink:href="#DejaVuSans-72"/>
     <use x="2828.097656" xlink:href="#DejaVuSans-65"/>
     <use x="2889.621094" xlink:href="#DejaVuSans-67"/>
     <use x="2953.097656" xlink:href="#DejaVuSans-72"/>
     <use x="2994.179688" xlink:href="#DejaVuSans-65"/>
     <use x="3055.703125" xlink:href="#DejaVuSans-73"/>
     <use x="3107.802734" xlink:href="#DejaVuSans-73"/>
     <use x="3159.902344" xlink:href="#DejaVuSans-69"/>
     <use x="3187.685547" xlink:href="#DejaVuSans-6f"/>
     <use x="3248.867188" xlink:href="#DejaVuSans-6e"/>
     <use x="3312.246094" xlink:href="#DejaVuSans-2c"/>
     <use x="3344.033203" xlink:href="#DejaVuSans-20"/>
     <use x="3375.820312" xlink:href="#DejaVuSans-66"/>
     <use x="3411.025391" xlink:href="#DejaVuSans-69"/>
     <use x="3438.808594" xlink:href="#DejaVuSans-78"/>
     <use x="3497.941406" xlink:href="#DejaVuSans-65"/>
     <use x="3559.464844" xlink:href="#DejaVuSans-64"/>
     <use x="3622.941406" xlink:href="#DejaVuSans-20"/>
     <use x="3654.728516" xlink:href="#DejaVuSans-64"/>
     <use x="3718.205078" xlink:href="#DejaVuSans-61"/>
     <use x="3779.484375" xlink:href="#DejaVuSans-74"/>
     <use x="3818.693359" xlink:href="#DejaVuSans-61"/>
     <use x="3879.972656" xlink:href="#DejaVuSans-20"/>
     <use x="3911.759766" xlink:href="#DejaVuSans-73"/>
     <use x="3963.859375" xlink:href="#DejaVuSans-69"/>
     <use x="3991.642578" xlink:href="#DejaVuSans-7a"/>
     <use x="4044.132812" xlink:href="#DejaVuSans-65"/>
    </g>
   </g>
   <g id="legend_1">
    <g id="patch_7">
     <path d="M 68.2 64.23625
L 178.278125 64.23625
Q 180.278125 64.23625 180.278125 62.23625
L 180.278125 33.88
Q 180.278125 31.88 178.278125 31.88
L 68.2 31.88
Q 66.2 31.88 66.2 33.88
L 66.2 62.23625
Q 66.2 64.23625 68.2 64.23625
z
" style="fill:#ffffff;opacity:0.8;stroke:#cccccc;stroke-linejoin:miter;"/>
    </g>
    <g id="line2d_20">
     <path d="M 70.2 39.978438
L 90.2 39.978438
" style="fill:none;stroke:#1f77b4;stroke-linecap:square;stroke-width:1.5;"/>
    </g>
    <g id="line2d_21"/>
    <g id="text_21">
     <!-- lstsq -->
     <defs>
      <path d="M 14.796875 27.296875
Q 14.796875 17.390625 18.875 11.75
Q 22.953125 6.109375 30.078125 6.109375
Q 37.203125 6.109375 41.296875 11.75
Q 45.40625 17.390625 45.40625 27.296875
Q 45.40625 37.203125 41.296875 42.84375
Q 37.203125 48.484375 30.078125 48.484375
Q 22.953125 48.484375 18.875 42.84375
Q 14.796875 37.203125 14.796875 27.296875
M 45.40625 8.203125
Q 42.578125 3.328125 38.25 0.953125
Q 33.9375 -1.421875 27.875 -1.421875
Q 17.96875 -1.421875 11.734375 6.484375
Q 5.515625 14.40625 5.515625 27.296875
Q 5.515625 40.1875 11.734375 48.09375
Q 17.96875 56 27.875 56
Q 33.9375 56 38.25 53.625
Q 42.578125 51.265625 45.40625 46.390625
L 45.40625 54.6875
L 54.390625 54.6875
L 54.390625 -20.796875
L 45.40625 -20.796875
z
" id="DejaVuSans-71"/>
     </defs>
     <g transform="translate(98.2 43.478438)scale(0.1 -0.1)">
      <use xlink:href="#DejaVuSans-6c"/>
      <use x="27.783203" xlink:href="#DejaVuSans-73"/>
      <use x="79.882812" xlink:href="#DejaVuSans-74"/>
      <use x="119.091797" xlink:href="#DejaVuSans-73"/>
      <use x="171.191406" xlink:href="#DejaVuSans-71"/>
     </g>
    </g>
    <g id="line2d_22">
     <path d="M 70.2 54.656563
L 90.2 54.656563
" style="fill:none;stroke:#ff7f0e;stroke-linecap:square;stroke-width:1.5;"/>
    </g>
    <g id="line2d_23"/>
    <g id="text_22">
     <!-- multilstsq -->
     <g transform="translate(98.2 58.156563)scale(0.1 -0.1)">
      <use xlink:href="#DejaVuSans-6d"/>
      <use x="97.412109" xlink:href="#DejaVuSans-75"/>
      <use x="160.791016" xlink:href="#DejaVuSans-6c"/>
      <use x="188.574219" xlink:href="#DejaVuSans-74"/>
      <use x="227.783203" xlink:href="#DejaVuSans-69"/>
      <use x="255.566406" xlink:href="#DejaVuSans-72"/>
      <use x="296.648438" xlink:href="#DejaVuSans-65"/>
      <use x="358.171875" xlink:href="#DejaVuSans-67"/>
      <use x="421.648438" xlink:href="#DejaVuSans-72"/>
      <use x="462.730469" xlink:href="#DejaVuSans-65"/>
      <use x="524.253906" xlink:href="#DejaVuSans-73"/>
      <use x="576.353516" xlink:href="#DejaVuSans-73"/>
      <use x="628.453125" xlink:href="#DejaVuSans-69"/>
      <use x="656.236328" xlink:href="#DejaVuSans-6f"/>
      <use x="717.417969" xlink:href="#DejaVuSans-6e"/>
     </g>
    </g>
   </g>
  </g>
 </g>
 <defs>
  <clipPath id="p06bd7473cd">
   <rect height="219.16" width="381.6" x="61.2" y="26.88"/>
  </clipPath>
 </defs>
</svg>
